HIERARCHY
ROOT hip
{
  OFFSET 0 90.174 2.4664
  CHANNELS 6 Xposition Yposition Zposition Zrotation Xrotation Yrotation
  JOINT abdomen
  {
    OFFSET 0 -1.186 -1.5018
    CHANNELS 6 Xposition Yposition Zposition Zrotation Xrotation Yrotation
    JOINT abdomen2
    {
      OFFSET 0 9.964 0.2134
      CHANNELS 6 Xposition Yposition Zposition Zrotation Xrotation Yrotation
      JOINT chest
      {
        OFFSET 0 13.134 -3.2573
        CHANNELS 6 Xposition Yposition Zposition Zrotation Xrotation Yrotation
        JOINT neck
        {
          OFFSET 0 20.686 -1.6905
          CHANNELS 6 Xposition Yposition Zposition Zrotation Xrotation Yrotation
          JOINT head
          {
            OFFSET 0 7.238 -0.1237
            CHANNELS 6 Xposition Yposition Zposition Zrotation Xrotation Yrotation
            End Site
            {
              OFFSET 0 0 0
            }
          }
        }
        JOINT lCollar
        {
          OFFSET 1.7069 20.075 5.0056
          CHANNELS 6 Xposition Yposition Zposition Zrotation Xrotation Yrotation
          JOINT lShldr
          {
            OFFSET 13.6458 -0.047 -4.849
            CHANNELS 6 Xposition Yposition Zposition Zrotation Xrotation Yrotation
            JOINT lForeArm
            {
              OFFSET 28.3255 -0.9759 2.2888
              CHANNELS 6 Xposition Yposition Zposition Zrotation Xrotation Yrotation
              JOINT lHand
              {
                OFFSET 22.1583 -0.53 10.8316
                CHANNELS 6 Xposition Yposition Zposition Zrotation Xrotation Yrotation
                JOINT lThumb1
                {
                  OFFSET 0.786 0.112 2.5817
                  CHANNELS 6 Xposition Yposition Zposition Zrotation Xrotation Yrotation
                  JOINT lThumb2
                  {
                    OFFSET 0.3601 -0.878 4.2331
                    CHANNELS 6 Xposition Yposition Zposition Zrotation Xrotation Yrotation
                    JOINT lThumb2_End
                    {
                      OFFSET 1.8127 -1.216 2.2227
                      CHANNELS 6 Xposition Yposition Zposition Zrotation Xrotation Yrotation
                      End Site
                      {
                        OFFSET 0.0181 -0.0122 0.0222
                      }
                    }
                  }
                }
                JOINT lCarpal1
                {
                  OFFSET 0.9571 1.114 1.7695
                  CHANNELS 6 Xposition Yposition Zposition Zrotation Xrotation Yrotation
                  JOINT lIndex1
                  {
                    OFFSET 4.1246 0.487 4.1451
                    CHANNELS 6 Xposition Yposition Zposition Zrotation Xrotation Yrotation
                    JOINT lIndex2
                    {
                      OFFSET 3.4052 -1.454 2.7682
                      CHANNELS 6 Xposition Yposition Zposition Zrotation Xrotation Yrotation
                      JOINT lIndex2_End
                      {
                        OFFSET 1.4531 -1.795 1.2713
                        CHANNELS 6 Xposition Yposition Zposition Zrotation Xrotation Yrotation
                        End Site
                        {
                          OFFSET 0.0145 -0.0179 0.0127
                        }
                      }
                    }
                  }
                  JOINT lMid1
                  {
                    OFFSET 5.6954 0.21 2.1184
                    CHANNELS 6 Xposition Yposition Zposition Zrotation Xrotation Yrotation
                    JOINT lMid2
                    {
                      OFFSET 3.9766 -1.54 2.3863
                      CHANNELS 6 Xposition Yposition Zposition Zrotation Xrotation Yrotation
                      JOINT lMid2_End
                      {
                        OFFSET 1.4042 -1.926 1.125
                        CHANNELS 6 Xposition Yposition Zposition Zrotation Xrotation Yrotation
                        End Site
                        {
                          OFFSET 0.014 -0.0193 0.0113
                        }
                      }
                    }
                  }
                }
                JOINT lCarpal2
                {
                  OFFSET 2.0956 0.66 -0.3894
                  CHANNELS 6 Xposition Yposition Zposition Zrotation Xrotation Yrotation
                  JOINT lRing1
                  {
                    OFFSET 5.0395 -0.09 2.4971
                    CHANNELS 6 Xposition Yposition Zposition Zrotation Xrotation Yrotation
                    JOINT lRing2
                    {
                      OFFSET 3.7921 -1.552 1.4806
                      CHANNELS 6 Xposition Yposition Zposition Zrotation Xrotation Yrotation
                      JOINT lRing2_End
                      {
                        OFFSET 1.4655 -1.808 0.9609
                        CHANNELS 6 Xposition Yposition Zposition Zrotation Xrotation Yrotation
                        End Site
                        {
                          OFFSET 0.0147 -0.0181 0.0096
                        }
                      }
                    }
                  }
                  JOINT lPinky1
                  {
                    OFFSET 4.9141 -1.269 0.3591
                    CHANNELS 6 Xposition Yposition Zposition Zrotation Xrotation Yrotation
                    JOINT lPinky2
                    {
                      OFFSET 3.1477 -1.685 0.8462
                      CHANNELS 6 Xposition Yposition Zposition Zrotation Xrotation Yrotation
                      JOINT lPinky2_End
                      {
                        OFFSET 0.8055 -1.585 0.7955
                        CHANNELS 6 Xposition Yposition Zposition Zrotation Xrotation Yrotation
                        End Site
                        {
                          OFFSET 0.0081 -0.0158 0.008
                        }
                      }
                    }
                  }
                }
              }
            }
          }
        }
        JOINT rCollar
        {
          OFFSET -1.7069 20.075 5.0056
          CHANNELS 6 Xposition Yposition Zposition Zrotation Xrotation Yrotation
          JOINT rShldr
          {
            OFFSET -13.6458 -0.047 -4.849
            CHANNELS 6 Xposition Yposition Zposition Zrotation Xrotation Yrotation
            JOINT rForeArm
            {
              OFFSET -28.3255 -0.9759 2.2888
              CHANNELS 6 Xposition Yposition Zposition Zrotation Xrotation Yrotation
              JOINT rHand
              {
                OFFSET -22.1583 -0.53 10.8316
                CHANNELS 6 Xposition Yposition Zposition Zrotation Xrotation Yrotation
                JOINT rThumb1
                {
                  OFFSET -0.786 0.112 2.5817
                  CHANNELS 6 Xposition Yposition Zposition Zrotation Xrotation Yrotation
                  JOINT rThumb2
                  {
                    OFFSET -0.3601 -0.878 4.2331
                    CHANNELS 6 Xposition Yposition Zposition Zrotation Xrotation Yrotation
                    JOINT rThumb2_End
                    {
                      OFFSET -1.8127 -1.216 2.2227
                      CHANNELS 6 Xposition Yposition Zposition Zrotation Xrotation Yrotation
                      End Site
                      {
                        OFFSET -0.0181 -0.0122 0.0222
                      }
                    }
                  }
                }
                JOINT rCarpal1
                {
                  OFFSET -0.9571 1.114 1.7695
                  CHANNELS 6 Xposition Yposition Zposition Zrotation Xrotation Yrotation
                  JOINT rIndex1
                  {
                    OFFSET -4.1246 0.487 4.1451
                    CHANNELS 6 Xposition Yposition Zposition Zrotation Xrotation Yrotation
                    JOINT rIndex2
                    {
                      OFFSET -3.4052 -1.454 2.7682
                      CHANNELS 6 Xposition Yposition Zposition Zrotation Xrotation Yrotation
                      JOINT rIndex2_End
                      {
                        OFFSET -1.4531 -1.795 1.2713
                        CHANNELS 6 Xposition Yposition Zposition Zrotation Xrotation Yrotation
                        End Site
                        {
                          OFFSET -0.0145 -0.018 0.0127
                        }
                      }
                    }
                  }
                  JOINT rMid1
                  {
                    OFFSET -5.6954 0.21 2.1184
                    CHANNELS 6 Xposition Yposition Zposition Zrotation Xrotation Yrotation
                    JOINT rMid2
                    {
                      OFFSET -3.9766 -1.54 2.3863
                      CHANNELS 6 Xposition Yposition Zposition Zrotation Xrotation Yrotation
                      JOINT rMid2_End
                      {
                        OFFSET -1.4042 -1.926 1.125
                        CHANNELS 6 Xposition Yposition Zposition Zrotation Xrotation Yrotation
                        End Site
                        {
                          OFFSET -0.014 -0.0193 0.0113
                        }
                      }
                    }
                  }
                }
                JOINT rCarpal2
                {
                  OFFSET -2.0956 0.66 -0.3894
                  CHANNELS 6 Xposition Yposition Zposition Zrotation Xrotation Yrotation
                  JOINT rRing1
                  {
                    OFFSET -5.0395 -0.09 2.4971
                    CHANNELS 6 Xposition Yposition Zposition Zrotation Xrotation Yrotation
                    JOINT rRing2
                    {
                      OFFSET -3.7921 -1.552 1.4806
                      CHANNELS 6 Xposition Yposition Zposition Zrotation Xrotation Yrotation
                      JOINT rRing2_End
                      {
                        OFFSET -1.4655 -1.808 0.9609
                        CHANNELS 6 Xposition Yposition Zposition Zrotation Xrotation Yrotation
                        End Site
                        {
                          OFFSET -0.0147 -0.0181 0.0096
                        }
                      }
                    }
                  }
                  JOINT rPinky1
                  {
                    OFFSET -4.9141 -1.269 0.3592
                    CHANNELS 6 Xposition Yposition Zposition Zrotation Xrotation Yrotation
                    JOINT rPinky2
                    {
                      OFFSET -3.1477 -1.685 0.8462
                      CHANNELS 6 Xposition Yposition Zposition Zrotation Xrotation Yrotation
                      JOINT rPinky2_End
                      {
                        OFFSET -0.8055 -1.585 0.7955
                        CHANNELS 6 Xposition Yposition Zposition Zrotation Xrotation Yrotation
                        End Site
                        {
                          OFFSET -0.0081 -0.0158 0.008
                        }
                      }
                    }
                  }
                }
              }
            }
          }
        }
      }
    }
  }
  JOINT lThigh
  {
    OFFSET 8.367 -8.2066 0.5982
    CHANNELS 6 Xposition Yposition Zposition Zrotation Xrotation Yrotation
    JOINT lShin
    {
      OFFSET 2.1923 -43.463 -0.4932
      CHANNELS 6 Xposition Yposition Zposition Zrotation Xrotation Yrotation
      JOINT lFoot
      {
        OFFSET 0.7333 -45.8593 -2.6451
        CHANNELS 6 Xposition Yposition Zposition Zrotation Xrotation Yrotation
        End Site
        {
          OFFSET 2.6618 -4.2699 12.3931
        }
      }
    }
  }
  JOINT rThigh
  {
    OFFSET -8.367 -8.2066 0.5982
    CHANNELS 6 Xposition Yposition Zposition Zrotation Xrotation Yrotation
    JOINT rShin
    {
      OFFSET -2.1923 -43.463 -0.4931
      CHANNELS 6 Xposition Yposition Zposition Zrotation Xrotation Yrotation
      JOINT rFoot
      {
        OFFSET -0.7333 -45.8593 -2.6451
        CHANNELS 6 Xposition Yposition Zposition Zrotation Xrotation Yrotation
        End Site
        {
          OFFSET -2.6618 -4.2699 12.3931
        }
      }
    }
  }
}
MOTION
Frames:	4
Frame Time:	0.0333333
0 90.174 2.4664 0 0 -0 0 -1.186 -1.5018 0 0 -0 0 9.964 0.2134 0 0 -0 0 13.134 -3.2573 0 0 -0 0 20.686 -1.6905 0 0 -0 0 7.238 -0.1237 0 0 -0 1.7069 20.075 5.0056 0 0 -0 13.6458 -0.047 -4.849 1.66051 0.0835086 5.75766 28.3255 -0.9759 2.2888 -0.0175111 0.895433 15.7816 22.1583 -0.53 10.8316 7.95139e-016 -1.98785e-016 -0 0.786 0.112 2.5817 5.46658e-016 -3.97569e-016 -0 0.3601 -0.878 4.2331 5.96354e-016 0 -0 1.8127 -1.216 2.2227 3.97569e-016 1.98785e-016 9.54166e-015 0.9571 1.114 1.7695 1.49089e-016 -3.97569e-016 -0 4.1246 0.487 4.1451 6.4605e-016 0 3.18055e-015 3.4052 -1.454 2.7682 5.96354e-016 0 3.18055e-015 1.4531 -1.795 1.2713 8.94531e-016 -1.98785e-016 6.36111e-015 5.6954 0.21 2.1184 6.4605e-016 0 3.18055e-015 3.9766 -1.54 2.3863 5.96354e-016 0 3.18055e-015 1.4042 -1.926 1.125 8.94531e-016 -1.98785e-016 6.36111e-015 2.0956 0.66 -0.3894 1.49089e-016 -3.97569e-016 -0 5.0395 -0.09 2.4971 6.4605e-016 0 3.18055e-015 3.7921 -1.552 1.4806 5.96354e-016 0 3.18055e-015 1.4655 -1.808 0.9609 8.94531e-016 -1.98785e-016 6.36111e-015 4.9141 -1.269 0.3591 6.4605e-016 0 3.18055e-015 3.1477 -1.685 0.8462 5.96354e-016 0 3.18055e-015 0.8055 -1.585 0.7955 8.94531e-016 -1.98785e-016 6.36111e-015 -1.7069 20.075 5.0056 0 0 -0 -13.6458 -0.047 -4.849 -1.4496 0.0636048 -5.0245 -28.3255 -0.9759 2.2888 -1.74811 1.20616 -16.8394 -22.1583 -0.53 10.8316 -1.19271e-015 1.98785e-016 -3.18055e-015 -0.786 0.112 2.5817 -3.97569e-016 1.98785e-016 -3.18055e-015 -0.3601 -0.878 4.2331 -2.98177e-016 1.98785e-016 -3.18055e-015 -1.8127 -1.216 2.2227 -2.98177e-016 3.97569e-016 -0 -0.9571 1.114 1.7695 4.96962e-016 0 -6.36111e-015 -4.1246 0.487 4.1451 -9.93923e-017 3.97569e-016 -0 -3.4052 -1.454 2.7682 -8.94531e-016 5.96354e-016 -0 -1.4531 -1.795 1.2713 -3.97569e-016 3.97569e-016 -0 -5.6954 0.21 2.1184 -9.93923e-017 3.97569e-016 -0 -3.9766 -1.54 2.3863 -8.94531e-016 5.96354e-016 -0 -1.4042 -1.926 1.125 -3.97569e-016 3.97569e-016 -0 -2.0956 0.66 -0.3894 4.96962e-016 0 -6.36111e-015 -5.0395 -0.09 2.4971 -9.93923e-017 3.97569e-016 -0 -3.7921 -1.552 1.4806 -8.94531e-016 5.96354e-016 -0 -1.4655 -1.808 0.9609 -3.97569e-016 3.97569e-016 -0 -4.9141 -1.269 0.3592 -9.93923e-017 3.97569e-016 -0 -3.1477 -1.685 0.8462 -8.94531e-016 5.96354e-016 -0 -0.8055 -1.585 0.7955 -3.97569e-016 3.97569e-016 -0 8.367 -8.2066 0.5982 -4.66115 -1.03232 0.120763 2.1923 -43.463 -0.4932 0.00990601 1.55097 0.177175 0.7333 -45.8593 -2.6451 4.65196 -0.54114 -0.255042 -8.367 -8.2066 0.5982 4.66115 -1.03222 -0.120763 -2.1923 -43.463 -0.4931 -0.00990459 1.5509 -0.177176 -0.7333 -45.8593 -2.6451 -4.65196 -0.541171 0.255041 
-0.626018 89.5981 34.9983 0.0104159 -8.99857 -179.868 0 -1.186 -1.5018 0.0150371 -0.0763813 -0.119009 0 9.964 0.2134 0.0299156 -0.152777 -0.237998 1.11022e-016 13.134 -3.2573 0.0299157 -0.152785 -0.237998 5.55112e-017 20.686 -1.6905 9.557e-005 -0.502331 -0.000809141 -1.66533e-016 7.238 -0.1237 4.17479e-009 -0.841064 2.81327e-008 1.7069 20.075 5.0056 -24.4142 11.4602 38.4517 13.6458 -0.047 -4.849 -52.6515 6.4706 -100.808 28.3255 -0.9759 2.2888 -9.4816 13.3156 -60.5049 22.1583 -0.53 10.8316 -3.37477 -5.32629 27.886 0.786 0.112 2.5817 -2.75869e-032 -3.97569e-015 -3.97569e-016 0.3601 -0.878 4.2331 -1.59028e-015 -3.97569e-015 3.97569e-016 1.8127 -1.216 2.2227 -1.59028e-015 -3.77691e-015 -3.97569e-016 0.9571 1.114 1.7695 -2.75869e-032 -3.97569e-015 -3.97569e-016 4.1246 0.487 4.1451 -4.77083e-015 1.18277e-014 5.96354e-015 3.4052 -1.454 2.7682 1.59028e-015 -2.48481e-016 -0 1.4531 -1.795 1.2713 1.59028e-015 -6.4605e-015 -3.97569e-016 5.6954 0.21 2.1184 -4.77083e-015 1.18277e-014 5.96354e-015 3.9766 -1.54 2.3863 1.59028e-015 -2.48481e-016 -0 1.4042 -1.926 1.125 1.59028e-015 -6.4605e-015 -3.97569e-016 2.0956 0.66 -0.3894 -2.75869e-032 -3.97569e-015 -3.97569e-016 5.0395 -0.09 2.4971 -4.77083e-015 1.18277e-014 5.96354e-015 3.7921 -1.552 1.4806 1.59028e-015 -2.48481e-016 -0 1.4655 -1.808 0.9609 1.59028e-015 -6.4605e-015 -3.97569e-016 4.9141 -1.269 0.3591 -4.77083e-015 1.18277e-014 5.96354e-015 3.1477 -1.685 0.8462 1.59028e-015 -2.48481e-016 -0 0.8055 -1.585 0.7955 1.59028e-015 -6.4605e-015 -3.97569e-016 -1.7069 20.075 5.0056 19.2284 11.8954 -26.0758 -13.6458 -0.047 -4.849 55.476 4.77975 98.4391 -28.3255 -0.9759 2.2888 4.23218 4.1275 38.243 -22.1583 -0.53 10.8316 7.31847 2.58636 -12.876 -0.786 0.112 2.5817 -8.13322e-006 -5.51245e-006 7.55385e-008 -0.3601 -0.878 4.2331 3.62891e-006 8.32994e-007 -2.67655e-006 -1.8127 -1.216 2.2227 -7.95139e-016 1.54058e-015 -9.93923e-016 -0.9571 1.114 1.7695 0 8.08805e-015 -0 -4.1246 0.487 4.1451 -8.13322e-006 -5.51245e-006 7.55386e-008 -3.4052 -1.454 2.7682 3.62891e-006 8.32994e-007 -2.67655e-006 -1.4531 -1.795 1.2713 1.59028e-015 -5.45415e-015 1.98785e-016 -5.6954 0.21 2.1184 -8.13322e-006 -5.51245e-006 7.55386e-008 -3.9766 -1.54 2.3863 3.62891e-006 8.32994e-007 -2.67655e-006 -1.4042 -1.926 1.125 1.59028e-015 -5.45415e-015 1.98785e-016 -2.0956 0.66 -0.3894 0 8.08805e-015 -0 -5.0395 -0.09 2.4971 -8.13322e-006 -5.51245e-006 7.55386e-008 -3.7921 -1.552 1.4806 3.62891e-006 8.32994e-007 -2.67655e-006 -1.4655 -1.808 0.9609 1.59028e-015 -5.45415e-015 1.98785e-016 -4.9141 -1.269 0.3592 -8.13322e-006 -5.51245e-006 7.55386e-008 -3.1477 -1.685 0.8462 3.62891e-006 8.32994e-007 -2.67655e-006 -0.8055 -1.585 0.7955 1.59028e-015 -5.45415e-015 1.98785e-016 8.367 -8.2066 0.5982 7.20622 -37.1768 14.9972 2.1923 -43.463 -0.4932 1.95454 40.3272 -0.189407 0.7333 -45.8593 -2.6451 -9.5402 -11.5386 4.27036 -8.367 -8.2066 0.5982 -6.13535 -37.1304 -14.8765 -2.1923 -43.463 -0.4931 -2.15031 40.5247 0.319651 -0.7333 -45.8593 -2.6451 8.74478 -11.4656 -4.35193 
-0.625379 89.6942 34.398 0.00788389 -7.3902 -179.878 0 -1.186 -1.5018 0.0140591 0.286873 -0.121993 0 9.964 0.2134 0.0287295 0.573717 -0.244061 -5.55112e-017 13.134 -3.2573 0.0287295 0.573711 -0.24406 5.55112e-017 20.686 -1.6905 2.5562e-007 -0.998731 -6.91835e-006 5.55112e-017 7.238 -0.1237 1.5007e-009 -1.66904 -1.19785e-007 1.7069 20.075 5.0056 -24.2792 11.4327 38.0061 13.6458 -0.047 -4.849 -52.6514 6.4706 -100.808 28.3255 -0.9759 2.2888 -9.40676 13.029 -59.8026 22.1583 -0.53 10.8316 -3.49196 -5.02541 27.2743 0.786 0.112 2.5817 5.13759e-006 -4.78661e-007 8.1492e-006 0.3601 -0.878 4.2331 3.18055e-015 3.8266e-015 3.97569e-016 1.8127 -1.216 2.2227 2.80813e-006 2.32947e-006 4.33419e-006 0.9571 1.114 1.7695 -3.18055e-015 4.02539e-015 7.95139e-016 4.1246 0.487 4.1451 5.13759e-006 -4.78661e-007 8.1492e-006 3.4052 -1.454 2.7682 1.59028e-015 2.83268e-015 -3.97569e-016 1.4531 -1.795 1.2713 2.80813e-006 2.32947e-006 4.33419e-006 5.6954 0.21 2.1184 5.13759e-006 -4.78661e-007 8.1492e-006 3.9766 -1.54 2.3863 1.59028e-015 2.83268e-015 -3.97569e-016 1.4042 -1.926 1.125 2.80813e-006 2.32947e-006 4.33419e-006 2.0956 0.66 -0.3894 -3.18055e-015 4.02539e-015 7.95139e-016 5.0395 -0.09 2.4971 5.13759e-006 -4.78661e-007 8.1492e-006 3.7921 -1.552 1.4806 1.59028e-015 2.83268e-015 -3.97569e-016 1.4655 -1.808 0.9609 2.80813e-006 2.32947e-006 4.33419e-006 4.9141 -1.269 0.3591 5.13759e-006 -4.78661e-007 8.1492e-006 3.1477 -1.685 0.8462 1.59028e-015 2.83268e-015 -3.97569e-016 0.8055 -1.585 0.7955 2.80813e-006 2.32947e-006 4.33419e-006 -1.7069 20.075 5.0056 18.9951 11.7787 -25.5979 -13.6458 -0.047 -4.849 55.5542 4.67865 98.6042 -28.3255 -0.9759 2.2888 4.06882 3.93732 37.0454 -22.1583 -0.53 10.8316 7.28548 2.72415 -12.0285 -0.786 0.112 2.5817 -7.95139e-016 2.13694e-015 -9.93923e-016 -0.3601 -0.878 4.2331 -1.29314e-032 -9.31803e-016 -7.95139e-016 -1.8127 -1.216 2.2227 -2.8449e-033 -8.19987e-016 -1.98785e-016 -0.9571 1.114 1.7695 -7.95139e-016 2.13694e-015 -5.96354e-016 -4.1246 0.487 4.1451 -2.38542e-015 -6.45926e-014 5.36719e-015 -3.4052 -1.454 2.7682 -1.59028e-015 -8.82107e-016 -9.93923e-016 -1.4531 -1.795 1.2713 7.95139e-016 -3.96327e-015 -3.97569e-016 -5.6954 0.21 2.1184 -2.38542e-015 -6.45926e-014 5.36719e-015 -3.9766 -1.54 2.3863 -1.59028e-015 -8.82107e-016 -9.93923e-016 -1.4042 -1.926 1.125 7.95139e-016 -3.96327e-015 -3.97569e-016 -2.0956 0.66 -0.3894 -7.95139e-016 2.13694e-015 -5.96354e-016 -5.0395 -0.09 2.4971 -2.38542e-015 -6.45926e-014 5.36719e-015 -3.7921 -1.552 1.4806 -1.59028e-015 -8.82107e-016 -9.93923e-016 -1.4655 -1.808 0.9609 7.95139e-016 -3.96327e-015 -3.97569e-016 -4.9141 -1.269 0.3592 -2.38542e-015 -6.45926e-014 5.36719e-015 -3.1477 -1.685 0.8462 -1.59028e-015 -8.82107e-016 -9.93923e-016 -0.8055 -1.585 0.7955 7.95139e-016 -3.96327e-015 -3.97569e-016 8.367 -8.2066 0.5982 7.11398 -34.9641 14.86 2.1923 -43.463 -0.4932 1.95362 40.3319 -0.206879 0.7333 -45.8593 -2.6451 -9.66229 -12.0073 4.04156 -8.367 -8.2066 0.5982 -6.04817 -34.9306 -14.746 -2.1923 -43.463 -0.4931 -2.14869 40.5279 0.337295 -0.7333 -45.8593 -2.6451 8.86439 -11.9327 -4.15783 
-0.624891 89.7833 33.7991 0.00563046 -5.77832 -179.888 0 -1.186 -1.5018 0.0130999 0.653102 -0.124799 0 9.964 0.2134 0.0276252 1.30619 -0.249772 0 13.134 -3.2573 0.0276252 1.30618 -0.249772 0 20.686 -1.6905 4.25791e-007 -1.4965 -1.12436e-005 -5.55112e-017 7.238 -0.1237 2.23547e-009 -2.49883 1.57215e-008 1.7069 20.075 5.0056 -24.1442 11.4041 37.5595 13.6458 -0.047 -4.849 -52.6515 6.47062 -100.808 28.3255 -0.9759 2.2888 -9.32836 12.7433 -59.1004 22.1583 -0.53 10.8316 -3.60592 -4.72315 26.6633 0.786 0.112 2.5817 -1.1594e-006 -1.11094e-006 1.45194e-006 0.3601 -0.878 4.2331 -5.98055e-006 -2.43461e-006 3.73038e-006 1.8127 -1.216 2.2227 3.81059e-006 4.3399e-006 -2.32651e-006 0.9571 1.114 1.7695 2.79318e-032 -4.02539e-015 3.97569e-016 4.1246 0.487 4.1451 -1.1594e-006 -1.11094e-006 1.45194e-006 3.4052 -1.454 2.7682 -5.98055e-006 -2.43461e-006 3.73038e-006 1.4531 -1.795 1.2713 3.81059e-006 4.3399e-006 -2.32651e-006 5.6954 0.21 2.1184 -1.1594e-006 -1.11094e-006 1.45194e-006 3.9766 -1.54 2.3863 -5.98055e-006 -2.43461e-006 3.73038e-006 1.4042 -1.926 1.125 3.81059e-006 4.3399e-006 -2.32651e-006 2.0956 0.66 -0.3894 2.79318e-032 -4.02539e-015 3.97569e-016 5.0395 -0.09 2.4971 -1.1594e-006 -1.11094e-006 1.45194e-006 3.7921 -1.552 1.4806 -5.98055e-006 -2.43461e-006 3.73038e-006 1.4655 -1.808 0.9609 3.81059e-006 4.3399e-006 -2.32651e-006 4.9141 -1.269 0.3591 -1.1594e-006 -1.11094e-006 1.45194e-006 3.1477 -1.685 0.8462 -5.98055e-006 -2.43461e-006 3.73038e-006 0.8055 -1.585 0.7955 3.81059e-006 4.3399e-006 -2.32651e-006 -1.7069 20.075 5.0056 18.7631 11.6594 -25.1212 -13.6458 -0.047 -4.849 55.6327 4.5778 98.7694 -28.3255 -0.9759 2.2888 3.90133 3.75036 35.846 -22.1583 -0.53 10.8316 7.25041 2.86152 -11.1803 -0.786 0.112 2.5817 1.59028e-015 -6.75868e-015 -3.97569e-016 -0.3601 -0.878 4.2331 1.22848e-032 -3.54085e-015 1.98785e-016 -1.8127 -1.216 2.2227 -2.32334e-032 -6.69656e-015 -1.98785e-016 -0.9571 1.114 1.7695 7.95139e-016 -3.5657e-015 -5.96354e-016 -4.1246 0.487 4.1451 -1.59028e-015 -7.34882e-014 6.55989e-015 -3.4052 -1.454 2.7682 -7.95139e-016 2.85753e-015 3.97569e-016 -1.4531 -1.795 1.2713 2.41386e-033 -3.47873e-016 3.97569e-016 -5.6954 0.21 2.1184 -1.59028e-015 -7.34882e-014 6.55989e-015 -3.9766 -1.54 2.3863 -7.95139e-016 2.85753e-015 3.97569e-016 -1.4042 -1.926 1.125 2.41386e-033 -3.47873e-016 3.97569e-016 -2.0956 0.66 -0.3894 7.95139e-016 -3.5657e-015 -5.96354e-016 -5.0395 -0.09 2.4971 -1.59028e-015 -7.34882e-014 6.55989e-015 -3.7921 -1.552 1.4806 -7.95139e-016 2.85753e-015 3.97569e-016 -1.4655 -1.808 0.9609 2.41386e-033 -3.47873e-016 3.97569e-016 -4.9141 -1.269 0.3592 -1.59028e-015 -7.34882e-014 6.55989e-015 -3.1477 -1.685 0.8462 -7.95139e-016 2.85753e-015 3.97569e-016 -0.8055 -1.585 0.7955 2.41386e-033 -3.47873e-016 3.97569e-016 8.367 -8.2066 0.5982 7.03248 -32.7461 14.7311 2.1923 -43.463 -0.4932 1.95237 40.3464 -0.224871 0.7333 -45.8593 -2.6451 -9.78697 -12.4807 3.8107 -8.367 -8.2066 0.5982 -5.97062 -32.7284 -14.6227 -2.1923 -43.463 -0.4931 -2.14802 40.5432 0.355443 -0.7333 -45.8593 -2.6451 8.98644 -12.4046 -3.96181 
